<svg width="24" height="24" viewBox="0 0 24 24" fill="none" xmlns="http://www.w3.org/2000/svg">
<path fill-rule="evenodd" clip-rule="evenodd" d="M 8 2 C 6.9 2 6 2.9 6 4 L 6 16 C 6 17.1 6.9 18 8 18 L 20 18 C 21.1 18 22 17.1 22 16 L 22 4 C 22 2.9 21.1 2 20 2 L 8 2 z M 2 6 L 2 20 C 2 21.1 2.9 22 4 22 L 18 22 L 18 20 L 4 20 L 4 6 L 2 6 z M 7.5 7 L 10 7 C 10.83 7 11.5 7.6699999 11.5 8.5 L 11.5 9.5 C 11.5 10.33 10.83 11 10 11 L 9 11 L 9 13 L 7.5 13 L 7.5 7 z M 12.5 7 L 15 7 C 15.83 7 16.5 7.6699999 16.5 8.5 L 16.5 11.5 C 16.5 12.33 15.83 13 15 13 L 12.5 13 L 12.5 7 z M 17.5 7 L 20.5 7 L 20.5 8.5 L 19 8.5 L 19 9.5 L 20.5 9.5 L 20.5 11 L 19 11 L 19 13 L 17.5 13 L 17.5 7 z M 9 8.5 L 9 9.5 L 10 9.5 L 10 8.5 L 9 8.5 z M 14 8.5 L 14 11.5 L 15 11.5 L 15 8.5 L 14 8.5 z" fill="black"/>
</svg>
