<svg width="25" height="24" viewBox="0 0 25 24" fill="none" xmlns="http://www.w3.org/2000/svg">
<path fill-rule="evenodd" clip-rule="evenodd" d="M12.0039 2C6.48391 2 2.00391 6.48 2.00391 12C2.00391 17.52 6.48391 22 12.0039 22C17.5239 22 22.0039 17.52 22.0039 12C22.0039 6.48 17.5239 2 12.0039 2ZM12.0039 20C7.58391 20 4.00391 16.42 4.00391 12C4.00391 7.58 7.58391 4 12.0039 4C16.4239 4 20.0039 7.58 20.0039 12C20.0039 16.42 16.4239 20 12.0039 20ZM17.0039 12C17.0039 14.7614 14.7653 17 12.0039 17C9.24248 17 7.00391 14.7614 7.00391 12C7.00391 9.23858 9.24248 7 12.0039 7C14.7653 7 17.0039 9.23858 17.0039 12Z" fill="black"/>
</svg>
