<svg width="24" height="24" viewBox="0 0 24 24" fill="none" xmlns="http://www.w3.org/2000/svg">
<path fill-rule="evenodd" clip-rule="evenodd" d="M23 5.13043C22.1903 5.49171 21.3207 5.736 20.4076 5.84657C21.3398 5.28343 22.055 4.39371 22.3921 3.333C21.5199 3.85243 20.5544 4.23171 19.5264 4.43486C18.7027 3.55029 17.5291 3 16.2316 3C13.7387 3 11.7184 5.034 11.7184 7.54371C11.7184 7.89986 11.758 8.247 11.8346 8.58C8.08388 8.38971 4.75713 6.58071 2.5312 3.83057C2.14297 4.503 1.92076 5.28343 1.92076 6.11657C1.92076 7.69157 2.71765 9.08271 3.92831 9.89786C3.18889 9.87343 2.49289 9.67029 1.88373 9.33086C1.88373 9.34886 1.88373 9.36814 1.88373 9.38743C1.88373 11.5886 3.43919 13.4246 5.50421 13.8424C5.12492 13.9466 4.72648 14.0019 4.31526 14.0019C4.02409 14.0019 3.74186 13.9736 3.46601 13.9209C4.04069 15.726 5.70726 17.04 7.6816 17.076C6.13763 18.2949 4.19139 19.0213 2.07657 19.0213C1.7126 19.0213 1.35247 18.9994 1 18.9583C2.99733 20.2479 5.37012 21 7.91914 21C16.2213 21 20.7613 14.0751 20.7613 8.07086C20.7613 7.87414 20.7562 7.67743 20.7473 7.482C21.6297 6.84171 22.3947 6.042 23 5.13043Z" fill="black"/>
</svg>
