<svg width="24" height="24" viewBox="0 0 24 24" fill="none" xmlns="http://www.w3.org/2000/svg">
<path d="M 4.328125 3 C 3.594795 3 3 3.581375 3 4.296875 L 3 19.701172 C 3 20.417972 3.594795 21 4.328125 21 L 19.666016 21 C 20.400116 21 21 20.417972 21 19.701172 L 21 4.296875 C 21 3.581375 20.400116 3 19.666016 3 L 4.328125 3 z M 7.0039062 5.4785156 C 7.8574063 5.4785156 8.5507812 6.1715507 8.5507812 7.0253906 C 8.5507812 7.8802206 7.8574064 8.5742188 7.0039062 8.5742188 C 6.1481563 8.5742188 5.4550781 7.8802206 5.4550781 7.0253906 C 5.4550781 6.1715507 6.1481562 5.4785156 7.0039062 5.4785156 z M 15.136719 9.5351562 C 17.838218 9.5351562 18.337891 11.313053 18.337891 13.626953 L 18.337891 18.337891 L 15.669922 18.337891 L 15.669922 14.162109 C 15.669922 13.165309 15.651303 11.882812 14.283203 11.882812 C 12.893803 11.882812 12.681641 12.969344 12.681641 14.089844 L 12.681641 18.337891 L 10.013672 18.337891 L 10.013672 9.7480469 L 12.574219 9.7480469 L 12.574219 10.921875 L 12.611328 10.921875 C 12.967828 10.246675 13.837919 9.5351562 15.136719 9.5351562 z M 5.6679688 9.7480469 L 8.3378906 9.7480469 L 8.3378906 18.337891 L 5.6679688 18.337891 L 5.6679688 9.7480469 z" fill="black"/>
</svg>
