<svg width="24" height="24" viewBox="0 0 24 24" fill="none" xmlns="http://www.w3.org/2000/svg">
<path d="M12 15.1434C10.2674 15.1434 8.85662 13.7326 8.85662 12C8.85662 10.2661 10.2674 8.85662 12 8.85662C13.7326 8.85662 15.1434 10.2661 15.1434 12C15.1434 13.7326 13.7326 15.1434 12 15.1434Z" fill="black"/>
<path fill-rule="evenodd" clip-rule="evenodd" d="M 12 2.5 C 8.54918 2.5 6.8239675 2.5007975 5.5234375 3.2109375 C 4.5466275 3.7443175 3.7443175 4.5466275 3.2109375 5.5234375 C 2.5007975 6.8239675 2.5 8.54918 2.5 12 C 2.5 15.4508 2.5007975 17.175963 3.2109375 18.476562 C 3.7443175 19.453362 4.5466275 20.255662 5.5234375 20.789062 C 6.8239675 21.499162 8.54918 21.5 12 21.5 C 15.4508 21.5 17.175963 21.499163 18.476562 20.789062 C 19.453362 20.255663 20.255662 19.453363 20.789062 18.476562 C 21.499162 17.175962 21.5 15.4508 21.5 12 C 21.5 8.54918 21.499163 6.8239675 20.789062 5.5234375 C 20.255663 4.5466275 19.453363 3.7443175 18.476562 3.2109375 C 17.175962 2.5007975 15.4508 2.5 12 2.5 z M 17.373047 5.9238281 C 17.384472 5.9232491 17.394681 5.9238281 17.40625 5.9238281 C 17.77635 5.9238281 18.078125 6.22362 18.078125 6.59375 C 18.078125 6.96387 17.77635 7.2636719 17.40625 7.2636719 C 17.03605 7.2636719 16.736328 6.96387 16.736328 6.59375 C 16.736328 6.2351866 17.018883 5.9417771 17.373047 5.9238281 z M 12 6.9707031 C 14.7775 6.9707031 17.029297 9.22251 17.029297 12 C 17.029297 14.7775 14.7775 17.029297 12 17.029297 C 9.22251 17.029297 6.9707031 14.7775 6.9707031 12 C 6.9707031 9.22251 9.22251 6.9707031 12 6.9707031 z M 12 8.8574219 C 10.2674 8.8574219 8.8574219 10.2661 8.8574219 12 C 8.8574219 13.7326 10.2674 15.142578 12 15.142578 C 13.7326 15.142578 15.142578 13.7326 15.142578 12 C 15.142578 10.2661 13.7326 8.8574219 12 8.8574219 z" fill="black"/>
</svg>
