<svg width="24" height="24" viewBox="0 0 24 24" fill="none" xmlns="http://www.w3.org/2000/svg">
<path fill-rule="evenodd" clip-rule="evenodd" d="M20.0066 3H3.99343C3.44465 3 3 3.44471 3 3.99342V20.0065C3 20.5552 3.44465 21 3.99343 21H12.6144V14.0294H10.2686V11.3129H12.6144V9.30949C12.6144 6.98462 14.0343 5.71866 16.1083 5.71866C17.1017 5.71866 17.9556 5.79258 18.2045 5.82563V8.2553L16.766 8.25598C15.6381 8.25598 15.4197 8.79194 15.4197 9.57845V11.3129H18.1097L17.7594 14.0294H15.4197V21H20.0066C20.5551 21 21 20.5552 21 20.0065V3.99342C21 3.44471 20.5551 3 20.0066 3Z" fill="black"/>
</svg>
