<svg width="24" height="24" viewBox="0 0 24 24" fill="none" xmlns="http://www.w3.org/2000/svg">
<path d="M22.5 6.6998C22.2 5.7998 21.5 4.9998 20.6 4.7998C18.9 4.2998 12 4.2998 12 4.2998C12 4.2998 5.1 4.2998 3.4 4.7998C2.5 5.0998 1.7 5.7998 1.5 6.6998C1 8.39981 1 11.9998 1 11.9998C1 11.9998 1 15.5998 1.5 17.2998C1.8 18.1998 2.5 18.9998 3.4 19.1998C5.1 19.6998 12 19.6998 12 19.6998C12 19.6998 18.9 19.6998 20.6 19.1998C21.5 18.8998 22.3 18.1998 22.5 17.2998C23 15.5998 23 11.9998 23 11.9998C23 11.9998 23 8.39981 22.5 6.6998ZM9.8 15.2998V8.6998L15.5 11.9998L9.8 15.2998Z" fill="black"/>
</svg>
