<?xml version="1.0" standalone="no"?>
<!DOCTYPE svg PUBLIC "-//W3C//DTD SVG 1.1//EN" "http://www.w3.org/Graphics/SVG/1.1/DTD/svg11.dtd" >
<svg xmlns="http://www.w3.org/2000/svg">
<defs>
  <font id="iconfont-sim4usa" horiz-adv-x="1232">
    <font-face font-family="iconfont-sim4usa"
      units-per-em="1001" ascent="1001"
      descent="0" />
    <missing-glyph horiz-adv-x="0" />
    <glyph glyph-name="arrow-downward"
      unicode="&#xEA01;"
      horiz-adv-x="1001" d="M834.1666666666667 500.5L775.3579166666667 559.3087499999999L542.2083333333334 326.5762499999999V834.1666666666666H458.7916666666667V326.5762499999999L226.0591666666667 559.7258333333333L166.8333333333334 500.5L500.5 166.8333333333333L834.1666666666667 500.5z" />
    <glyph glyph-name="arrow-left"
      unicode="&#xEA02;"
      horiz-adv-x="1001" d="M834.1666666666667 542.2083333333333H326.57625L559.7258333333334 775.3579166666666L500.5 834.1666666666666L166.8333333333334 500.5L500.5 166.8333333333333L559.30875 225.6420833333333L326.57625 458.7916666666666H834.1666666666667V542.2083333333333z" />
    <glyph glyph-name="arrow-right"
      unicode="&#xEA03;"
      horiz-adv-x="1001" d="M500.5 834.1666666666666L441.6912500000001 775.3579166666666L674.4237500000002 542.2083333333333H166.8333333333334V458.7916666666666H674.4237500000002L441.6912500000001 225.6420833333333L500.5 166.8333333333333L834.1666666666667 500.5L500.5 834.1666666666666z" />
    <glyph glyph-name="arrow-upward"
      unicode="&#xEA04;"
      horiz-adv-x="1001" d="M166.8333333333334 500.5L225.6420833333334 441.69125L458.7916666666667 674.4237499999999V166.8333333333333H542.2083333333334V674.4237499999999L774.9408333333333 441.2741666666666L834.1666666666667 500.5L500.5 834.1666666666666L166.8333333333334 500.5z" />
    <glyph glyph-name="calendar"
      unicode="&#xEA05;"
      horiz-adv-x="1042.7083333333335" d="M792.6209958333335 875.875H834.3293291666668C880.2084958333334 875.875 917.7459958333334 838.3375 917.7459958333334 792.4583333333333V125.125C917.7459958333334 79.2458333333332 880.2084958333334 41.7083333333333 834.3293291666668 41.7083333333333H166.9964129166667C121.11724625 41.7083333333333 83.57974625 79.2458333333332 83.57974625 125.125V792.4583333333333C83.57974625 838.3375 121.11724625 875.875 166.9964129166667 875.875H208.70474625V959.2916666666666H292.1214129166667V875.875H709.2043291666668V959.2916666666666H792.6209958333335V875.875zM166.9964129166667 125.125H834.3293291666668V667.3333333333333H166.9964129166667V125.125z" />
    <glyph glyph-name="cancel"
      unicode="&#xEA06;"
      horiz-adv-x="1042.7083333333335" d="M83.57974625 500.5C83.57974625 731.1470833333333 270.01599625 917.5833333333334 500.6626625 917.5833333333334C731.3097458333333 917.5833333333334 917.7459958333334 731.1470833333333 917.7459958333334 500.5C917.7459958333334 269.8529166666666 731.3097458333333 83.4166666666666 500.6626625 83.4166666666666C270.01599625 83.4166666666666 83.57974625 269.8529166666666 83.57974625 500.5zM650.2329166666667 291.9583333333333L709.0416666666667 350.7670833333333L559.30875 500.5L709.0416666666667 650.2329166666666L650.2329166666667 709.0416666666666L500.5 559.3087499999999L350.7670833333334 709.0416666666666L291.9583333333334 650.2329166666666L441.6912500000001 500.5L291.9583333333334 350.7670833333333L350.7670833333334 291.9583333333333L500.5 441.69125L650.2329166666667 291.9583333333333z" />
    <glyph glyph-name="cart"
      unicode="&#xEA07;"
      horiz-adv-x="1001" d="M41.7083333333333 917.5833333333334V834.1666666666666H125.125L275.275 517.6004166666667L218.96875 415.8320833333334C188.5216666666667 359.9429166666667 228.5616666666667 291.9583333333333 291.9583333333334 291.9583333333333H792.4583333333334V375.375H291.9583333333334L337.8375 458.7916666666666H648.5645833333334C679.8458333333334 458.7916666666666 707.3733333333334 475.8920833333333 721.5541666666668 501.75125L870.87 772.4383333333333C886.3020833333334 799.9658333333333 866.2820833333334 834.1666666666666 834.5837500000001 834.1666666666666H217.3004166666667L178.0945833333333 917.5833333333334H41.7083333333333zM291.9487404166667 250.25C246.06957375 250.25 208.9491570833333 212.7125 208.9491570833333 166.8333333333333C208.9491570833333 120.9541666666666 246.06957375 83.4166666666666 291.9487404166667 83.4166666666666C337.8279070833334 83.4166666666666 375.3654070833334 120.9541666666666 375.3654070833334 166.8333333333333C375.3654070833334 212.7125 337.8279070833334 250.25 291.9487404166667 250.25zM626.0337416666667 166.8333333333333C626.0337416666667 212.7125 663.1541583333334 250.25 709.0333250000001 250.25C754.9124916666666 250.25 792.4499916666667 212.7125 792.4499916666667 166.8333333333333C792.4499916666667 120.9541666666666 754.9124916666666 83.4166666666666 709.0333250000001 83.4166666666666C663.1541583333334 83.4166666666666 626.0337416666667 120.9541666666666 626.0337416666667 166.8333333333333z" />
    <glyph glyph-name="check-box-checked"
      unicode="&#xEA08;"
      horiz-adv-x="1042.7083333333335" d="M208.5416666666667 875.875H792.4583333333334C838.7545833333334 875.875 875.875 838.3375 875.875 792.4583333333333V208.5416666666666C875.875 162.6624999999999 838.7545833333334 125.125 792.4583333333334 125.125H208.5416666666667C162.2454166666667 125.125 125.125 162.6624999999999 125.125 208.5416666666666V792.4583333333333C125.125 838.3375 162.2454166666667 875.875 208.5416666666667 875.875zM208.5416666666667 500.5L417.0833333333334 291.9583333333333L792.4583333333334 667.3337504166666L733.6495833333333 726.55958375L417.0833333333334 409.9929166666666L267.3504166666667 559.3087499999999L208.5416666666667 500.5z" />
    <glyph glyph-name="check-box-unchecked"
      unicode="&#xEA09;"
      horiz-adv-x="1042.7083333333335" d="M208.70474625 875.875H792.6209958333335C838.5001625 875.875 876.0376625000001 838.3375 876.0376625000001 792.4583333333333V208.5416666666666C876.0376625000001 162.6624999999999 838.5001625 125.125 792.6209958333335 125.125H208.70474625C162.8255795833334 125.125 125.2880795833333 162.6624999999999 125.2880795833333 208.5416666666666V792.4583333333333C125.2880795833333 838.3375 162.8255795833334 875.875 208.70474625 875.875zM792.6209958333335 208.5416666666666V792.4583333333333H208.70474625V208.5416666666666H792.6209958333335z" />
    <glyph glyph-name="check-circle"
      unicode="&#xEA0A;"
      horiz-adv-x="1042.7083333333335" d="M83.57974625 500.5C83.57974625 730.73 270.4330795833333 917.5833333333334 500.6626625 917.5833333333334C730.8926625000001 917.5833333333334 917.7459958333334 730.73 917.7459958333334 500.5C917.7459958333334 270.27 730.8926625000001 83.4166666666666 500.6626625 83.4166666666666C270.4330795833333 83.4166666666666 83.57974625 270.27 83.57974625 500.5zM208.70474625 500.5L417.2459958333333 291.9583333333333L792.6209958333335 667.3350016666666L733.8122458333335 726.560835L417.2459958333333 409.9929166666666L267.51349625 559.3087499999999L208.70474625 500.5z" />
    <glyph glyph-name="check-list"
      unicode="&#xEA0B;"
      horiz-adv-x="1232" d="M1232 948.315753L510.58854 0L0 530.068L61.490198 590.27815C179.19979 569.63445 395.29413 460.53854 488.62737 408.57124C749.52185 723.38651 1058.5113000000001 934.696763 1180.3946 1001L1232 948.315753z" />
    <glyph glyph-name="check"
      unicode="&#xEA0C;"
      horiz-adv-x="1042.7083333333335" d="M375.5443358333334 326.5762499999999L201.6205858333333 500.5L142.3947525 441.69125L375.5443358333334 208.5416666666666L876.0460041666668 709.0416666666666L817.2372541666667 767.8504166666667L375.5443358333334 326.5762499999999z" />
    <glyph glyph-name="checkmark"
      unicode="&#xEA0D;"
      horiz-adv-x="1051.05" d="M1009.97897 500.5C1009.97897 224.0788550000001 783.888105 0 504.989485 0C226.090865 0 0 224.0788550000001 0 500.5C0 776.9186425 226.090865 1001 504.989485 1001C783.888105 1001 1009.97897 776.9186425 1009.97897 500.5zM608.6780699999999 334.3340000000001L294.9131185 663.3281655000001L331.9451135 702.702C414.8989845 686.1509655 541.57103 621.9558345 594.538945 591.9258345000001C709.8141049999999 744.6103665 924.46354 899.787889 1017.38637 958.29078345L1051.05 924.2568335L608.6780699999999 334.3340000000001zM0 1001H1051.05V0H0z" />
    <glyph glyph-name="chev-collapse"
      unicode="&#xEA0E;"
      horiz-adv-x="1001" d="M500.5 667.3333333333333L250.25 417.0833333333333L309.0587500000001 358.2745833333334L500.5 549.2987499999999L691.9412500000001 358.2745833333334L750.75 417.0833333333333L500.5 667.3333333333333z" />
    <glyph glyph-name="chev-expand"
      unicode="&#xEA0F;"
      horiz-adv-x="1001" d="M691.9412500000001 642.7254166666667L500.5 451.70125L309.0587500000001 642.7254166666667L250.25 583.9166666666666L500.5 333.6666666666667L750.75 583.9166666666666L691.9412500000001 642.7254166666667z" />
    <glyph glyph-name="chev-left"
      unicode="&#xEA10;"
      horiz-adv-x="1001" d="M642.7254166666667 691.94125L583.9166666666667 750.75L333.6666666666667 500.5L583.9166666666667 250.25L642.7254166666667 309.0587499999999L451.70125 500.5L642.7254166666667 691.94125z" />
    <glyph glyph-name="chev-right"
      unicode="&#xEA11;"
      horiz-adv-x="1001" d="M417.0766600000001 750.75L358.2679100000001 691.94125L549.2904083333334 500.5L358.2679100000001 309.0587499999999L417.0766600000001 250.25L667.3249916666667 500.5L417.0766600000001 750.75z" />
    <glyph glyph-name="clear"
      unicode="&#xEA12;"
      horiz-adv-x="1001" d="M750.75 692.3583333333333L692.3583333333335 750.75L500.5 558.8916666666667L308.6416666666667 750.75L250.25 692.3583333333333L442.1083333333334 500.5L250.25 308.6416666666666L308.6416666666667 250.25L500.5 442.1083333333333L692.3583333333335 250.25L750.75 308.6416666666666L558.8916666666668 500.5L750.75 692.3583333333333z" />
    <glyph glyph-name="close"
      unicode="&#xEA13;"
      horiz-adv-x="1001" d="M792.4583333333334 733.6495833333333L733.6495833333333 792.4583333333333L500.5 559.3087499999999L267.3504166666667 792.4583333333333L208.5416666666667 733.6495833333333L441.6912500000001 500.5L208.5416666666667 267.3504166666667L267.3504166666667 208.5416666666666L500.5 441.69125L733.6495833333333 208.5416666666666L792.4583333333334 267.3504166666667L559.30875 500.5L792.4583333333334 733.6495833333333z" />
    <glyph glyph-name="cursor"
      unicode="&#xEA14;"
      horiz-adv-x="1001" d="M375.4963712500001 959.2762345833333V917.56790125H333.7880379166667V538.062525H292.0797045833334V579.8125666666667H250.37137125V621.52215125H125.2880795833333V496.3541916666667H166.9547045833334V454.6458583333333H208.6630379166667V371.2709H250.37137125V287.8542333333333H292.0797045833334V208.5666916666666H333.7880379166667V41.69165H792.5792875000001V208.5666916666666H834.3710375V333.6916916666667H876.0376625000001V583.9429429166667H834.3710375V625.6512762499999H792.5792875000001V667.4013179166666H709.1626208333333V709.0679429166667H584.0376208333333V750.77627625H500.6626625V917.56790125H458.9960375V959.2762345833333H375.4963712500001zM459.0377458333334 917.5833333333334H375.5380795833334V959.2916666666666H459.0377458333334V917.5833333333334zM333.82974625 538.1084041666666V917.57040375L375.5380795833334 917.5833333333334V458.7791541666667H333.82974625V496.3583625H292.1214129166667V538.1084041666666H333.82974625zM458.9543291666667 542.1958208333333V917.57040375H500.6626625V750.7787787499999H584.0376208333333V709.0704454166666H500.6626625V542.1958208333333H458.9543291666667zM250.4130795833334 538.1209166666666L292.1214129166667 538.1084041666666V579.82925H250.4130795833334V538.1209166666666zM125.2880795833333 496.3458499999999V621.5138095833333H250.37137125V579.8042250000001H166.9547045833334V496.3458499999999H125.2880795833333zM250.37137125 371.2625583333334H208.6630379166667V454.6375166666666H166.9547045833334V496.3458499999999H208.6630379166667V454.6375166666666L250.37137125 454.679225V371.2625583333334zM333.7880379166667 208.5583499999999H292.0797045833334V287.8458916666666H250.37137125V371.2625583333334H292.0797045833334V292.016725H333.7880379166667V208.5583499999999zM792.5375791666667 208.5583499999999V41.7250166666665H333.7880379166667V208.5583499999999H375.4963712500001V83.3916416666667H750.8709541666667V208.5583499999999H792.5375791666667zM834.3293291666668 333.7250583333333V208.5583499999999H792.5375791666667V333.7250583333333H834.3293291666668zM834.3293291666668 333.7250583333333V583.93460125H876.0376625000001V333.7250583333333H834.3293291666668zM792.54175 583.9575408333333L834.3293291666668 583.93460125L834.3335000000001 625.6658741666666H792.6209958333335V667.3792125H709.2043291666668V709.0875458333333H584.0793291666666V542.2125041666666H625.7876625V667.3792125H709.2043291666668V500.5041708333333H750.9126625000001V625.6291708333333H792.54175V583.9575408333333z" />
    <glyph glyph-name="drop-down"
      unicode="&#xEA15;"
      horiz-adv-x="1001" d="M291.9583333333334 583.9166666666666L500.5 375.375L709.0416666666667 583.9166666666666H291.9583333333334z" />
    <glyph glyph-name="drop-up"
      unicode="&#xEA16;"
      horiz-adv-x="1001" d="M291.9583333333334 417.0833333333333L500.5 625.625L709.0416666666667 417.0833333333333H291.9583333333334z" />
    <glyph glyph-name="email"
      unicode="&#xEA17;"
      horiz-adv-x="1001" d="M166.8333333333334 834.1666666666666H834.1666666666667C880.0458333333335 834.1666666666666 917.5833333333334 796.6291666666666 917.5833333333334 750.75V250.25C917.5833333333334 204.3708333333333 880.0458333333335 166.8333333333333 834.1666666666667 166.8333333333333H166.8333333333334C120.9541666666667 166.8333333333333 83.4166666666667 204.3708333333333 83.4166666666667 250.25L83.83375 750.75C83.83375 796.6291666666666 120.9541666666667 834.1666666666666 166.8333333333334 834.1666666666666zM500.5 458.7916666666666L834.1666666666667 667.3333333333333V750.75L500.5 542.2083333333333L166.8333333333334 750.75V667.3333333333333L500.5 458.7916666666666z" />
    <glyph glyph-name="error"
      unicode="&#xEA18;"
      horiz-adv-x="1042.7083333333335" d="M83.57974625 500.5C83.57974625 730.73 270.4330795833333 917.5833333333334 500.6626625 917.5833333333334C730.8926625000001 917.5833333333334 917.7459958333334 730.73 917.7459958333334 500.5C917.7459958333334 270.27 730.8926625000001 83.4166666666666 500.6626625 83.4166666666666C270.4330795833333 83.4166666666666 83.57974625 270.27 83.57974625 500.5zM458.9543291666667 709.0416666666666V458.7916666666666H542.3709958333334V709.0416666666666H458.9543291666667zM458.9543291666667 375.375V291.9583333333333H542.3709958333334V375.375H458.9543291666667z" />
    <glyph glyph-name="filter-list"
      unicode="&#xEA19;"
      horiz-adv-x="1001" d="M125.125 750.75V667.3333333333333H875.875V750.75H125.125zM417.0833333333334 250.25H583.9166666666667V333.6666666666667H417.0833333333334V250.25zM750.75 458.7916666666666H250.25V542.2083333333333H750.75V458.7916666666666z" />
    <glyph glyph-name="image"
      unicode="&#xEA1A;"
      horiz-adv-x="1001" d="M792.6209958333335 875.875C838.5001625 875.875 876.0376625000001 838.3375 876.0376625000001 792.4583333333333V208.5416666666666C876.0376625000001 162.6624999999999 838.5001625 125.125 792.6209958333335 125.125H208.70474625C162.8255795833334 125.125 125.2880795833333 162.6624999999999 125.2880795833333 208.5416666666666V792.4583333333333C125.2880795833333 838.3375 162.8255795833334 875.875 208.70474625 875.875H792.6209958333335zM458.9543291666667 312.3954166666665L354.6839129166667 437.9375L208.70474625 250.25H792.6209958333335L604.9334958333334 500.5L458.9543291666667 312.3954166666665z" />
    <glyph glyph-name="launch-external"
      unicode="&#xEA1B;"
      horiz-adv-x="1001" d="M208.5416666666667 792.4583333333333V208.5416666666666H792.4583333333334V500.5H875.875V208.5416666666666C875.875 162.6624999999999 838.3375000000001 125.125 792.4583333333334 125.125H208.5416666666667C162.2454166666667 125.125 125.125 162.6624999999999 125.125 208.5416666666666V792.4583333333333C125.125 838.3375 162.2454166666667 875.875 208.5416666666667 875.875H500.5V792.4583333333333H208.5416666666667zM583.9166666666667 792.4583333333333V875.875H875.875V583.9166666666666H792.4583333333334V733.6495833333333L382.4654166666667 323.6566666666667L323.6566666666667 382.4654166666667L733.6495833333333 792.4583333333333H583.9166666666667z" />
    <glyph glyph-name="link"
      unicode="&#xEA1C;"
      horiz-adv-x="1001" d="M458.7916666666667 375.375H291.9583333333334C223.1395833333333 375.375 166.8333333333334 431.68125 166.8333333333334 500.5C166.8333333333334 569.3187499999999 223.1395833333333 625.625 291.9583333333334 625.625H458.7916666666667V709.0416666666666H291.9583333333334C176.8433333333334 709.0416666666666 83.4166666666667 615.615 83.4166666666667 500.5C83.4166666666667 385.385 176.8433333333334 291.9583333333333 291.9583333333334 291.9583333333333H458.7916666666667V375.375zM709.0416666666667 709.0416666666666H542.2083333333334V625.625H709.0416666666667C777.8604166666667 625.625 834.1666666666667 569.3187499999999 834.1666666666667 500.5C834.1666666666667 431.68125 777.8604166666667 375.375 709.0416666666667 375.375H542.2083333333334V291.9583333333333H709.0416666666667C824.1566666666668 291.9583333333333 917.5833333333334 385.385 917.5833333333334 500.5C917.5833333333334 615.615 824.1566666666668 709.0416666666666 709.0416666666667 709.0416666666666zM667.3333333333334 542.2083333333333H333.6666666666667V458.7916666666666H667.3333333333334V542.2083333333333z" />
    <glyph glyph-name="list"
      unicode="&#xEA1D;"
      horiz-adv-x="1029.6000000000001" d="M596.25852 334.3340000000001L288.8943200000001 663.3283799999999L325.17056 702.702C406.4317400000001 686.1511800000001 530.5185600000001 621.95562 582.40754 591.92562C695.3260600000001 744.6104379999999 905.59898 899.787746 996.62134 958.290762L1029.6000000000001 924.256762L596.25852 334.3340000000001z" />
    <glyph glyph-name="map-marker"
      unicode="&#xEA1E;"
      horiz-adv-x="1001" d="M498.544921875 875.19072265625A272.61609375 272.61609375 0 0 1 237.79615234375 530.39314453125A268.6668359375 268.6668359375 0 0 1 257.7183984375 478.994140625L446.618046875 157.031875C470.704609375 115.29095703125 530.9601171874999 115.33005859375 555.007578125 157.031875L742.5777734375 477.5669335937499A272.537890625 272.537890625 0 0 1 498.544921875 875.19072265625zM501.4775390625 467.263671875A135.8779296875 135.8779296875 0 1 0 637.35546875 603.1416015625A135.8779296875 135.8779296875 0 0 0 501.4775390625 467.263671875z" />
    <glyph glyph-name="menu"
      unicode="&#xEA1F;"
      horiz-adv-x="1001" d="M917.5833333333334 792.4583333333333H83.4166666666667V709.0416666666666H917.5833333333334V792.4583333333333zM917.5833333333334 291.9583333333333H83.4166666666667V208.5416666666666H917.5833333333334V291.9583333333333zM917.5833333333334 542.2083333333333H83.4166666666667V458.7916666666666H917.5833333333334V542.2083333333333z" />
    <glyph glyph-name="pdf"
      unicode="&#xEA20;"
      horiz-adv-x="1001" d="M333.6666666666667 917.5833333333334C287.7875 917.5833333333334 250.25 880.0458333333333 250.25 834.1666666666666L250.25 333.6666666666667C250.25 287.7874999999999 287.7875 250.25 333.6666666666667 250.25L834.1666666666667 250.25C880.0458333333335 250.25 917.5833333333334 287.7874999999999 917.5833333333334 333.6666666666667L917.5833333333334 834.1666666666666C917.5833333333334 880.0458333333333 880.0458333333335 917.5833333333334 834.1666666666667 917.5833333333334L333.6666666666667 917.5833333333334zM83.4166666666667 750.75L83.4166666666667 166.8333333333333C83.4166666666667 120.9541666666666 120.9541666666667 83.4166666666666 166.8333333333334 83.4166666666666L750.75 83.4166666666666L750.75 166.8333333333333L166.8333333333334 166.8333333333333L166.8333333333334 750.75L83.4166666666667 750.75zM312.8125 709.0416666666666L417.0833333333334 709.0416666666666C451.70125 709.0416666666666 479.6458333333334 681.0970875041667 479.6458333333334 646.4791666666666L479.6458333333334 604.7708333333333C479.6458333333334 570.1529166666667 451.70125 542.2083333333333 417.0833333333334 542.2083333333333L375.375 542.2083333333333L375.375 458.7916666666666L312.8125 458.7916666666666L312.8125 709.0416666666666zM521.3541666666667 709.0416666666666L625.625 709.0416666666666C660.2429166666667 709.0416666666666 688.1875 681.0970875041667 688.1875 646.4791666666666L688.1875 521.3541666666666C688.1875 486.7362499999999 660.2429166666667 458.7916666666666 625.625 458.7916666666666L521.3541666666667 458.7916666666666L521.3541666666667 709.0416666666666zM729.8958333333334 709.0416666666666L855.0208333333334 709.0416666666666L855.0208333333334 646.4791666666666L792.4583333333334 646.4791666666666L792.4583333333334 604.7708333333333L855.0208333333334 604.7708333333333L855.0208333333334 542.2083333333333L792.4583333333334 542.2083333333333L792.4583333333334 458.7916666666666L729.8958333333334 458.7916666666666L729.8958333333334 709.0416666666666zM375.375 646.4791666666666L375.375 604.7708333333333L417.0833333333334 604.7708333333333L417.0833333333334 646.4791666666666L375.375 646.4791666666666zM583.9166666666667 646.4791666666666L583.9166666666667 521.3541666666666L625.625 521.3541666666666L625.625 646.4791666666666L583.9166666666667 646.4791666666666z" />
    <glyph glyph-name="phone"
      unicode="&#xEA21;"
      horiz-adv-x="1001" d="M276.1091666666667 550.9670833333333C336.1691666666667 432.9325 432.9325000000001 336.58625 550.9670833333334 276.1091666666666L642.7254166666667 367.8675C653.9866666666667 379.12875 670.67 382.8825 685.2679166666667 377.8775C731.98125 362.4454166666666 782.4483333333335 354.10375 834.1666666666667 354.10375C857.10625 354.10375 875.875 335.3349999999999 875.875 312.3954166666665V166.8333333333333C875.875 143.89375 857.10625 125.125 834.1666666666667 125.125C442.5254166666667 125.125 125.125 442.5254166666666 125.125 834.1666666666666C125.125 857.10625 143.89375 875.875 166.8333333333334 875.875H312.8125C335.7520833333334 875.875 354.5208333333334 857.10625 354.5208333333334 834.1666666666666C354.5208333333334 782.03125 362.8625 731.98125 378.2945833333334 685.2679166666667C382.8825 670.67 379.5458333333334 654.40375 367.8675 642.7254166666667L276.1091666666667 550.9670833333333z" />
    <glyph glyph-name="play"
      unicode="&#xEA22;"
      horiz-adv-x="1001" d="M250.4130795833334 83.4166666666666V917.5833333333334L917.7459958333334 500.5L250.4130795833334 83.4166666666666z" />
    <glyph glyph-name="quote"
      unicode="&#xEA23;"
      horiz-adv-x="1001" d="M208.5416666666667 291.9583333333333H333.6666666666667L417.0833333333334 458.7916666666666V709.0416666666666H166.8333333333334V458.7916666666666H291.9583333333334L208.5416666666667 291.9583333333333zM625.625 291.9583333333333H750.75L834.1666666666667 458.7916666666666V709.0416666666666H583.9166666666667V458.7916666666666H709.0416666666667L625.625 291.9583333333333z" />
    <glyph glyph-name="radio-button-checked"
      unicode="&#xEA24;"
      horiz-adv-x="1042.7083333333335" d="M500.6626625 917.5833333333334C270.4330795833333 917.5833333333334 83.57974625 730.73 83.57974625 500.5C83.57974625 270.27 270.4330795833333 83.4166666666666 500.6626625 83.4166666666666C730.8926625000001 83.4166666666666 917.7459958333334 270.27 917.7459958333334 500.5C917.7459958333334 730.73 730.8926625000001 917.5833333333334 500.6626625 917.5833333333334zM500.6626625 166.8333333333333C316.3122462500001 166.8333333333333 166.9964129166667 316.1491666666666 166.9964129166667 500.5C166.9964129166667 684.8508333333333 316.3122462500001 834.1666666666666 500.6626625 834.1666666666666C685.0134958333333 834.1666666666666 834.3293291666668 684.8508333333333 834.3293291666668 500.5C834.3293291666668 316.1491666666666 685.0134958333333 166.8333333333333 500.6626625 166.8333333333333zM709.2043291666668 500.5C709.2043291666668 385.3266083333333 615.8360541666667 291.9583333333333 500.6626625 291.9583333333333C385.4884366666667 291.9583333333333 292.1214129166667 385.3266083333333 292.1214129166667 500.5C292.1214129166667 615.6742258333334 385.4884366666667 709.0416666666666 500.6626625 709.0416666666666C615.8360541666667 709.0416666666666 709.2043291666668 615.6742258333334 709.2043291666668 500.5z" />
    <glyph glyph-name="radio-button-unchecked"
      unicode="&#xEA25;"
      horiz-adv-x="1042.7083333333335" d="M83.57974625 500.5C83.57974625 730.73 270.4330795833333 917.5833333333334 500.6626625 917.5833333333334C730.8926625000001 917.5833333333334 917.7459958333334 730.73 917.7459958333334 500.5C917.7459958333334 270.27 730.8926625000001 83.4166666666666 500.6626625 83.4166666666666C270.4330795833333 83.4166666666666 83.57974625 270.27 83.57974625 500.5zM166.9964129166667 500.5C166.9964129166667 316.1491666666666 316.3122462500001 166.8333333333333 500.6626625 166.8333333333333C685.0134958333333 166.8333333333333 834.3293291666668 316.1491666666666 834.3293291666668 500.5C834.3293291666668 684.8508333333333 685.0134958333333 834.1666666666666 500.6626625 834.1666666666666C316.3122462500001 834.1666666666666 166.9964129166667 684.8508333333333 166.9964129166667 500.5z" />
    <glyph glyph-name="search"
      unicode="&#xEA26;"
      horiz-adv-x="1001" d="M875.875 183.5166666666666L688.1875 375.375C729.8958333333334 429.5958333333333 750.75 492.1583333333334 750.75 563.0625C750.75 734.0666666666666 608.9416666666667 875.875 437.9375 875.875C266.9333333333334 875.875 125.125 734.0666666666666 125.125 563.0625C125.125 392.0583333333333 266.9333333333334 250.25 437.9375 250.25C508.8416666666666 250.25 575.575 275.275 625.625 312.8125L813.3125 125.125L875.875 183.5166666666666zM437.9375 333.6666666666667C312.8125 333.6666666666667 208.5416666666667 437.9375 208.5416666666667 563.0625C208.5416666666667 688.1875 312.8125 792.4583333333333 437.9375 792.4583333333333C563.0625 792.4583333333333 667.3333333333334 688.1875 667.3333333333334 563.0625C667.3333333333334 437.9375 563.0625 333.6666666666667 437.9375 333.6666666666667z" />
    <glyph glyph-name="social-facebook"
      unicode="&#xEA27;"
      horiz-adv-x="1001" d="M834.4419416666667 875.875H166.5593095833334C143.6706104166667 875.875 125.125 857.3268870833333 125.125 834.4411075V166.5622291666666C125.125 143.6768666666667 143.6706104166667 125.125 166.5593095833334 125.125H526.1256000000001V415.8571083333333H428.2861916666667V529.1577958333332H526.1256000000001V612.7166879166666C526.1256000000001 709.6831408333333 585.3472625 762.4842225 671.8503458333333 762.4842225C713.2834041666667 762.4842225 748.8981500000001 759.4011425 759.2793541666667 758.0226820833333V656.6851958333333L699.2819166666667 656.6568341666666C652.2390875 656.6568341666666 643.1299875000001 634.3028358333333 643.1299875000001 601.4988145833333V529.1577958333332H755.3254041666668L740.714975 415.8571083333333H643.1299875000001V125.125H834.4419416666667C857.3189625 125.125 875.875 143.6768666666667 875.875 166.5622291666666V834.4411075C875.875 857.3268870833333 857.3189625 875.875 834.4419416666667 875.875z" />
    <glyph glyph-name="social-instagram"
      unicode="&#xEA28;"
      horiz-adv-x="1001" d="M500.5 369.394025C428.2361416666667 369.394025 369.3948591666667 428.2361416666667 369.3948591666667 500.5C369.3948591666667 572.8180791666666 428.2361416666667 631.6051408333333 500.5 631.6051408333333C572.7638583333334 631.6051408333333 631.6059750000001 572.8180791666666 631.6059750000001 500.5C631.6059750000001 428.2361416666667 572.7638583333334 369.394025 500.5 369.394025zM500.5 896.7291666666666C356.5720491666667 896.7291666666666 284.6163111458334 896.6959042708334 230.3733723958334 867.0771484375C189.6322553125 844.8307576041666 156.1692423958334 811.3677446875 133.9228515625 770.6266276041666C104.3040957291667 716.3836888541666 104.2708333333333 644.4279508333334 104.2708333333333 500.5C104.2708333333333 356.5728833333334 104.3040957291667 284.619209875 133.9228515625 230.37339325C156.1692423958334 189.63269325 189.6322553125 156.1700974166666 230.3733723958334 133.9228724166666C284.6163111458334 104.3057849166667 356.5720491666667 104.2708333333333 500.5 104.2708333333333C644.4271166666666 104.2708333333333 716.380790125 104.3057432083333 770.6266067500001 133.9228724166666C811.36730675 156.1700557083334 844.8299025833334 189.6326515416666 867.0771275833334 230.37339325C896.6942150833333 284.6192515833334 896.7291666666667 356.5728833333334 896.7291666666667 500.5C896.7291666666667 644.4279508333334 896.6942567916667 716.3836888541666 867.0771275833334 770.6266276041666C844.8299442916666 811.3677446875 811.3673484583334 844.8307576041666 770.6266067500001 867.0771484375C716.3807484166666 896.6959042708334 644.4271166666666 896.7291666666666 500.5 896.7291666666666zM724.6008352916667 753.9270029958334C725.077353 753.9511521208333 725.503153375 753.9270029958334 725.9856770833334 753.9270029958334C741.4219312500001 753.9270029958334 754.0084635416667 741.4231824999999 754.0084635416667 725.9856770833333C754.0084635416667 710.5485887499999 741.4219312500001 698.0443511708334 725.9856770833334 698.0443511708334C710.5452520833334 698.0443511708334 698.044347 710.5485887499999 698.044347 725.9856770833333C698.044347 740.9407588916667 709.8292451249999 753.1783801208333 724.6008352916667 753.9270029958334zM500.5 710.2635915375C616.3448958333333 710.2635915375 710.2635957083334 616.34447875 710.2635957083334 500.5C710.2635957083334 384.6551041666667 616.3448958333333 290.7364042916667 500.5 290.7364042916667C384.65552125 290.7364042916667 290.7364084625 384.6551041666667 290.7364084625 500.5C290.7364084625 616.34447875 384.65552125 710.2635915375 500.5 710.2635915375zM500.5 631.5716949208334C428.2361416666667 631.5716949208334 369.4283050791667 572.8180791666666 369.4283050791667 500.5C369.4283050791667 428.2361416666667 428.2361416666667 369.42830925 500.5 369.42830925C572.7638583333334 369.42830925 631.57169075 428.2361416666667 631.57169075 500.5C631.57169075 572.8180791666666 572.7638583333334 631.5716949208334 500.5 631.5716949208334z" />
    <glyph glyph-name="social-linkedin"
      unicode="&#xEA29;"
      horiz-adv-x="1001" d="M180.5188802083334 875.875C149.932908125 875.875 125.125 851.6268177083333 125.125 821.7845052083333L125.125 179.2969511666667C125.125 149.4004178333333 149.932908125 125.125 180.5188802083334 125.125L820.2367506666667 125.125C850.8548381666667 125.125 875.875 149.4004178333333 875.875 179.2969511666667L875.875 821.7845052083333C875.875 851.6268177083333 850.8548381666667 875.875 820.2367506666667 875.875L180.5188802083334 875.875zM292.121254425 772.5002451833334C327.7193210958334 772.5002451833334 356.63883255 743.5949062208333 356.63883255 707.9826670583334C356.63883255 672.329132475 327.7193252666667 643.3836242166667 292.121254425 643.3836242166667C256.4293523458334 643.3836242166667 227.5222157541667 672.329132475 227.5222157541667 707.9826670583334C227.5222157541667 743.5949062208333 256.4293481750001 772.5002451833334 292.121254425 772.5002451833334zM631.327321625 603.304526825C744.0023424166668 603.304526825 764.8428704583333 529.1514144583333 764.8428704583333 432.6425019583333L764.8428704583333 236.1571295416667L653.5663300833334 236.1571295416667L653.5663300833334 410.322037125C653.5663300833334 451.8969037916667 652.7897626250001 505.3877161666667 595.7285917916668 505.3877161666667C537.7790334583334 505.3877161666667 528.9301100416667 460.0702773333334 528.9301100416667 413.3360898333333L528.9301100416667 236.1571295416667L417.6535696666667 236.1571295416667L417.6535696666667 594.4252105458334L524.4497174583333 594.4252105458334L524.4497174583333 545.466796875L525.997472 545.466796875C540.8664928333334 573.6282635416667 577.1565382916667 603.304526825 631.327321625 603.304526825zM236.4015320333333 594.4252105458334L347.7595204416667 594.4252105458334L347.7595204416667 236.1571295416667L236.4015320333333 236.1571295416667L236.4015320333333 594.4252105458334z" />
    <glyph glyph-name="social-twitter"
      unicode="&#xEA2A;"
      horiz-adv-x="1001" d="M959.2916666666669 787.0183154166666C925.5204291666668 771.94992875 889.2508625 761.761 851.1669833333333 757.1493095833333C890.0474916666667 780.6369404166667 919.8772916666666 817.74567875 933.9371708333334 861.986125C897.5591625000001 840.3215654166667 857.2897666666668 824.50242875 814.4136 816.0293808333333C780.0584458333334 852.92332125 731.1095458333334 875.875 676.9929833333334 875.875C573.0182791666667 875.875 488.7549333333334 791.04025 488.7549333333334 686.36442875C488.7549333333334 671.5100058333333 490.4065833333333 657.031375 493.6014416666667 643.1424999999999C337.1651616666668 651.07917875 198.41196375 726.52955375 105.5721333333333 841.2333095833333C89.3797070833333 813.187375 80.1116983333333 780.6369404166667 80.1116983333333 745.8880595833333C80.1116983333333 680.1974345833333 113.3486520833333 622.17530375 163.8432629166667 588.1767558333333C133.0032870833333 589.1956904166666 103.9742870833333 597.66832125 78.56723875 611.8253808333334C78.56723875 611.0746308333332 78.56723875 610.2704941666666 78.56723875 609.4659404166666C78.56723875 517.6588083333334 143.4428829166667 441.0823083333334 229.5714254166667 423.6565666666667C213.7518716666667 419.3105583333334 197.1336033333333 417.0040875 179.9823025 417.0040875C167.8380870833334 417.0040875 156.0667441666667 418.1844333333334 144.5615004166667 420.3824625C168.5304454166667 345.09475 238.0403025 290.29 320.3867333333334 288.7884999999999C255.9903179166667 237.9502125 174.81589125 207.6532791666666 86.61027375 207.6532791666666C71.4296916666667 207.6532791666666 56.4092695833333 208.5666916666666 41.7083333333333 210.2809041666666C125.01363875 156.4938374999999 223.978755 125.125 330.2941308333334 125.125C676.5633875 125.125 865.9192208333333 413.9510375 865.9192208333333 664.3778808333334C865.9192208333333 672.5827441666667 865.7065083333333 680.7871904166666 865.3353041666667 688.9382499999999C902.1387375 715.6436787499999 934.0456125 748.99825 959.2916666666669 787.0183154166666z" />
    <glyph glyph-name="social-youtube"
      unicode="&#xEA2B;"
      horiz-adv-x="1001" d="M938.4375 721.5625083333333C925.925 759.1000083333333 896.7291666666667 792.466675 859.1916666666667 800.8083416666666C788.2875 821.6625083333333 500.5 821.6625083333333 500.5 821.6625083333333C500.5 821.6625083333333 212.7125 821.6625083333333 141.8083333333333 800.8083416666666C104.2708333333333 788.2958416666667 70.9041666666667 759.1000083333333 62.5625 721.5625083333333C41.7083333333333 650.6579245833333 41.7083333333333 500.5083416666666 41.7083333333333 500.5083416666666C41.7083333333333 500.5083416666666 41.7083333333333 350.3583416666667 62.5625 279.454175C75.075 241.916675 104.2708333333333 208.5500083333333 141.8083333333333 200.2083416666667C212.7125 179.354175 500.5 179.354175 500.5 179.354175C500.5 179.354175 788.2875 179.354175 859.1916666666667 200.2083416666667C896.7291666666667 212.7208416666666 930.0958333333334 241.916675 938.4375 279.454175C959.2916666666669 350.3583416666667 959.2916666666669 500.5083416666666 959.2916666666669 500.5083416666666C959.2916666666669 500.5083416666666 959.2916666666669 650.6579245833333 938.4375 721.5625083333333zM408.7416666666668 362.8708416666667V638.1458416666667L646.4791666666667 500.5083416666666L408.7416666666668 362.8708416666667z" />
    <glyph glyph-name="star"
      unicode="&#xEA2C;"
      horiz-adv-x="1001" d="M816.2654499999993 65.3258343237503C782.9105384099993 41.5677962700003 568.8908199974993 192.1685328062503 527.9011362624993 192.4995359787503C486.9114525274993 192.8276856756253 270.4822595474993 45.6910685481253 237.5165267474994 69.9827065437503C204.5507939474994 94.2743445393752 282.0517437237494 343.7793997137502 269.7010403587493 382.7521698000002C257.3503369937493 421.7249398862503 50.1326625799993 581.5110144593752 63.1129198699993 620.2811877762501C76.0960387687493 659.0513610931253 338.0133644387493 662.6524473318752 371.3682760287494 686.4104853856252C404.7231876187494 710.1656699637502 493.0868042099993 956.0553715212502 534.0793495537494 955.7272218243752C575.0661716799993 955.3962186518752 659.4378440649994 708.1168744650003 692.4035768649994 683.8252364693752C725.3693096649994 659.5364519493752 987.1979254637494 651.7179287368753 999.5514904374994 612.7451586506252C1011.9021938024994 573.7723885643752 802.1291027749994 417.3420013262502 789.1459838762494 378.5718280093752C776.1657265862494 339.8016546925002 849.6203615899993 89.0838723775003 816.2654499999993 65.3258343237503z" />
    <glyph glyph-name="upload"
      unicode="&#xEA2D;"
      horiz-adv-x="1042.7083333333335" d="M375.5380795833334 333.6666666666667H625.7876625V583.9166666666666H792.6209958333335L500.6626625 875.875L208.70474625 583.9166666666666H375.5380795833334V333.6666666666667zM208.70474625 250.25H792.6209958333335V166.8333333333333H208.70474625V250.25z" />
  </font>
</defs>
</svg>
